<svg width="122" height="30" fill="none" xmlns="http://www.w3.org/2000/svg"><g opacity=".5" fill="#fff"><path fill-rule="evenodd" clip-rule="evenodd" d="M10 0H0v10a5 5 0 0 0 5 5h10V5a5 5 0 0 0-5-5Zm0 2H2v8a3 3 0 0 0 3 3h8V5a3 3 0 0 0-3-3Z"/><path d="M27.168 1.947h2.567l1.224 3.859 1.224-3.859h2.584l-2.023 5.61 1.224 3.247 3.026-8.874h3.043L35.209 14H32.88l-1.921-4.726L29.055 14h-2.346L21.898 1.93h3.026l3.043 8.874 1.19-3.247-1.989-5.61Zm18.756 12.155c-.895 0-1.71-.176-2.448-.527a6.101 6.101 0 0 1-1.887-1.377 6.552 6.552 0 0 1-1.224-1.972 6.295 6.295 0 0 1-.425-2.278c0-.793.148-1.558.442-2.295a6.215 6.215 0 0 1 1.258-1.938 6.053 6.053 0 0 1 1.921-1.343 5.69 5.69 0 0 1 2.414-.51c.896 0 1.712.176 2.448.527a5.97 5.97 0 0 1 1.887 1.394 6.286 6.286 0 0 1 1.207 1.972c.284.737.425 1.485.425 2.244 0 .793-.153 1.558-.459 2.295a6.173 6.173 0 0 1-1.24 1.955 6.218 6.218 0 0 1-1.905 1.343 5.69 5.69 0 0 1-2.414.51Zm-3.145-6.12c0 .465.068.918.204 1.36.136.43.335.816.595 1.156.272.34.607.612 1.003.816.397.204.85.306 1.36.306.533 0 .998-.108 1.394-.323.397-.215.726-.493.986-.833.261-.351.454-.742.578-1.173a4.543 4.543 0 0 0 0-2.686 3.323 3.323 0 0 0-.612-1.156 2.877 2.877 0 0 0-1.003-.799c-.385-.204-.833-.306-1.343-.306-.532 0-.997.108-1.394.323a3.118 3.118 0 0 0-.986.816c-.26.34-.459.731-.595 1.173-.124.43-.187.873-.187 1.326Zm16.061 6.12c-.895 0-1.71-.176-2.448-.527a6.099 6.099 0 0 1-1.887-1.377 6.548 6.548 0 0 1-1.224-1.972 6.293 6.293 0 0 1-.425-2.278c0-.793.148-1.558.442-2.295a6.213 6.213 0 0 1 1.258-1.938 6.052 6.052 0 0 1 1.922-1.343 5.69 5.69 0 0 1 2.413-.51c.896 0 1.712.176 2.449.527a5.972 5.972 0 0 1 1.886 1.394 6.29 6.29 0 0 1 1.207 1.972c.284.737.425 1.485.425 2.244 0 .793-.153 1.558-.459 2.295a6.177 6.177 0 0 1-1.24 1.955 6.22 6.22 0 0 1-1.904 1.343 5.69 5.69 0 0 1-2.415.51Zm-3.145-6.12c0 .465.069.918.205 1.36.136.43.334.816.595 1.156a2.931 2.931 0 0 0 2.363 1.122c.532 0 .997-.108 1.394-.323a3.07 3.07 0 0 0 .985-.833 3.66 3.66 0 0 0 .578-1.173 4.543 4.543 0 0 0 0-2.686 3.323 3.323 0 0 0-.611-1.156A2.878 2.878 0 0 0 60.2 4.65c-.385-.204-.833-.306-1.343-.306-.532 0-.997.108-1.393.323a3.117 3.117 0 0 0-.986.816c-.261.34-.46.731-.596 1.173-.124.43-.186.873-.186 1.326ZM66.47 14V1.93h4.506c.997 0 1.87.159 2.618.476.748.317 1.37.748 1.87 1.292.51.544.89 1.184 1.139 1.921.26.725.39 1.502.39 2.329 0 .918-.141 1.751-.425 2.499a5.397 5.397 0 0 1-1.223 1.904 5.51 5.51 0 0 1-1.904 1.224c-.737.283-1.559.425-2.465.425H66.47Zm7.684-6.052c0-.533-.073-1.014-.22-1.445a3.148 3.148 0 0 0-.613-1.139 2.704 2.704 0 0 0-1.002-.731 3.379 3.379 0 0 0-1.343-.255h-1.718v7.174h1.718c.51 0 .963-.09 1.36-.272.396-.181.725-.43.986-.748.272-.329.475-.708.612-1.139.147-.442.22-.924.22-1.445Zm13.118-3.57H83.6V14h-2.788V4.378h-3.689V1.93h10.149v2.448Zm9.845 7.174V14h-8.483V1.93h8.33v2.448H91.42v2.346h4.76v2.261h-4.76v2.567h5.695Zm.747-3.689c0-.725.136-1.445.408-2.159a5.89 5.89 0 0 1 1.19-1.938 6.043 6.043 0 0 1 1.904-1.377c.748-.351 1.598-.527 2.55-.527 1.134 0 2.114.244 2.941.731.839.487 1.462 1.122 1.87 1.904l-2.142 1.496a2.307 2.307 0 0 0-.527-.782 2.423 2.423 0 0 0-.68-.51 2.473 2.473 0 0 0-.765-.272 3.586 3.586 0 0 0-.765-.085c-.532 0-.997.108-1.394.323a3.08 3.08 0 0 0-.986.833c-.26.34-.453.725-.578 1.156a4.71 4.71 0 0 0-.187 1.309c0 .476.074.935.221 1.377.148.442.357.833.629 1.173.284.34.618.612 1.003.816.397.193.839.289 1.326.289.25 0 .505-.028.765-.085.272-.068.527-.164.765-.289.25-.136.476-.306.68-.51.204-.215.369-.476.493-.782l2.278 1.343a3.483 3.483 0 0 1-.816 1.19 4.82 4.82 0 0 1-1.224.884 6.54 6.54 0 0 1-1.479.544 6.56 6.56 0 0 1-1.53.187 5.539 5.539 0 0 1-2.414-.527 6.345 6.345 0 0 1-1.887-1.428 6.719 6.719 0 0 1-1.224-2.006 6.385 6.385 0 0 1-.425-2.278Zm22.788-5.933V14h-2.788V9.053h-4.811V14h-2.788V1.93h2.788v4.675h4.811V1.93h2.788Z"/><path d="M25.708 20.48h.708l3.54 8.52h-.888l-1.104-2.664h-3.828L23.044 29h-.9l3.564-8.52Zm2.064 5.196-1.716-4.212-1.74 4.212h3.456Zm9.237-2.208c-.552.016-1.032.168-1.44.456a2.3 2.3 0 0 0-.864 1.188V29h-.816v-6.252h.768v1.5c.232-.48.544-.856.936-1.128a2.17 2.17 0 0 1 1.26-.408c.064 0 .116.004.156.012v.744Zm3.219 2.388c0-.44.076-.856.228-1.248a3.1 3.1 0 0 1 .636-1.02c.28-.296.612-.528.996-.696a3.14 3.14 0 0 1 1.272-.252c.592 0 1.108.136 1.548.408.44.264.772.624.996 1.08l-.792.252a1.85 1.85 0 0 0-.744-.744 2.017 2.017 0 0 0-1.044-.276c-.32 0-.62.064-.9.192a2.327 2.327 0 0 0-.72.528c-.2.216-.36.476-.48.78a2.86 2.86 0 0 0-.168.996c0 .352.06.684.18.996.12.312.284.584.492.816.208.224.448.404.72.54a2.111 2.111 0 0 0 1.476.108c.2-.056.384-.132.552-.228a2.11 2.11 0 0 0 .432-.348c.12-.128.204-.264.252-.408l.804.24a2.123 2.123 0 0 1-.384.624 2.818 2.818 0 0 1-.6.492c-.224.136-.476.24-.756.312-.272.08-.556.12-.852.12a3.11 3.11 0 0 1-1.26-.252 3.179 3.179 0 0 1-.996-.708c-.28-.304-.5-.652-.66-1.044a3.455 3.455 0 0 1-.228-1.26ZM55.382 29h-.816v-3.492c0-.712-.124-1.244-.372-1.596-.24-.352-.596-.528-1.068-.528-.232 0-.464.048-.696.144a2.45 2.45 0 0 0-.636.372c-.2.16-.376.348-.528.564a2.476 2.476 0 0 0-.324.708V29h-.816v-8.76h.816v3.924a2.835 2.835 0 0 1 1.032-1.116c.44-.272.916-.408 1.428-.408.36 0 .664.068.912.204.248.128.452.312.612.552.16.232.276.516.348.852.072.328.108.692.108 1.092V29Zm4.62 0v-6.252h.816V29h-.816Zm0-7.56v-1.2h.816v1.2h-.816Zm8.493 7.26c-.048.024-.12.056-.216.096a3.722 3.722 0 0 1-.72.228 2.325 2.325 0 0 1-.48.048c-.176 0-.344-.024-.504-.072a1.23 1.23 0 0 1-.42-.216 1.155 1.155 0 0 1-.396-.912v-4.476h-.864v-.648h.864v-2.112h.816v2.112h1.44v.648h-1.44v4.248c.016.232.096.404.24.516a.892.892 0 0 0 .516.156c.232 0 .436-.036.612-.108.176-.08.288-.136.336-.168l.216.66Zm6.447.42a3.11 3.11 0 0 1-1.26-.252 3.22 3.22 0 0 1-.984-.708c-.28-.304-.5-.652-.66-1.044a3.455 3.455 0 0 1-.227-1.26c0-.44.075-.852.227-1.236.16-.392.377-.732.648-1.02.28-.296.612-.528.996-.696a2.96 2.96 0 0 1 1.248-.264c.456 0 .872.088 1.248.264.385.168.713.4.984.696a3.295 3.295 0 0 1 .864 2.244v.192a.483.483 0 0 1-.011.132h-5.353c.024.336.1.648.228.936.136.28.308.524.516.732.209.208.444.372.709.492a2.247 2.247 0 0 0 1.464.084c.2-.056.384-.132.552-.228.168-.096.32-.212.456-.348.135-.144.24-.3.311-.468l.709.192a2.157 2.157 0 0 1-.409.636c-.175.184-.38.348-.611.492-.233.136-.489.24-.769.312-.28.08-.572.12-.876.12Zm2.305-3.576a2.4 2.4 0 0 0-.24-.912 2.331 2.331 0 0 0-.505-.72 2.14 2.14 0 0 0-.707-.468 2.159 2.159 0 0 0-.853-.168 2.282 2.282 0 0 0-1.584.636c-.2.2-.363.44-.491.72-.12.28-.193.584-.217.912h4.596Zm4.487.312c0-.44.076-.856.228-1.248a3.1 3.1 0 0 1 .635-1.02c.28-.296.613-.528.997-.696a3.14 3.14 0 0 1 1.272-.252c.591 0 1.108.136 1.547.408.44.264.773.624.996 1.08l-.791.252a1.85 1.85 0 0 0-.744-.744 2.017 2.017 0 0 0-1.044-.276c-.32 0-.62.064-.9.192a2.327 2.327 0 0 0-.72.528c-.2.216-.36.476-.48.78a2.86 2.86 0 0 0-.169.996c0 .352.06.684.18.996.12.312.284.584.493.816.208.224.448.404.72.54a2.111 2.111 0 0 0 1.476.108c.2-.056.383-.132.551-.228a2.11 2.11 0 0 0 .433-.348c.12-.128.204-.264.251-.408l.804.24a2.123 2.123 0 0 1-.383.624 2.818 2.818 0 0 1-.6.492c-.225.136-.477.24-.757.312-.272.08-.555.12-.852.12a3.11 3.11 0 0 1-1.26-.252 3.179 3.179 0 0 1-.996-.708c-.28-.304-.5-.652-.66-1.044a3.455 3.455 0 0 1-.227-1.26ZM94.63 28.7c-.048.024-.12.056-.216.096a3.722 3.722 0 0 1-.72.228 2.325 2.325 0 0 1-.48.048c-.176 0-.344-.024-.504-.072a1.23 1.23 0 0 1-.42-.216 1.155 1.155 0 0 1-.396-.912v-4.476h-.864v-.648h.864v-2.112h.816v2.112h1.44v.648h-1.44v4.248c.016.232.096.404.24.516a.892.892 0 0 0 .516.156c.232 0 .436-.036.612-.108.176-.08.288-.136.336-.168l.216.66Zm5.856.42c-.68 0-1.188-.224-1.524-.672-.328-.456-.492-1.132-.492-2.028v-3.672h.816v3.528c0 1.416.484 2.124 1.452 2.124a2.158 2.158 0 0 0 1.344-.468c.2-.152.376-.332.528-.54.16-.208.288-.444.384-.708v-3.936h.816v5.196c0 .224.096.336.288.336V29a1.509 1.509 0 0 1-.24.024h-.12a.652.652 0 0 1-.468-.204c-.12-.128-.18-.3-.18-.516v-.72a2.961 2.961 0 0 1-2.604 1.536Zm11.169-5.652c-.552.016-1.032.168-1.44.456a2.3 2.3 0 0 0-.864 1.188V29h-.816v-6.252h.768v1.5c.232-.48.544-.856.936-1.128a2.17 2.17 0 0 1 1.26-.408c.064 0 .116.004.156.012v.744Zm6.351 5.652a3.11 3.11 0 0 1-1.26-.252 3.22 3.22 0 0 1-.984-.708c-.28-.304-.5-.652-.66-1.044a3.455 3.455 0 0 1-.228-1.26c0-.44.076-.852.228-1.236.16-.392.376-.732.648-1.02.28-.296.612-.528.996-.696a2.96 2.96 0 0 1 1.248-.264c.456 0 .872.088 1.248.264.384.168.712.4.984.696a3.295 3.295 0 0 1 .864 2.244v.192a.483.483 0 0 1-.012.132h-5.352c.024.336.1.648.228.936.136.28.308.524.516.732.208.208.444.372.708.492a2.247 2.247 0 0 0 1.464.084c.2-.056.384-.132.552-.228.168-.096.32-.212.456-.348.136-.144.24-.3.312-.468l.708.192a2.157 2.157 0 0 1-.408.636c-.176.184-.38.348-.612.492-.232.136-.488.24-.768.312-.28.08-.572.12-.876.12Zm2.304-3.576a2.4 2.4 0 0 0-.24-.912 2.331 2.331 0 0 0-.504-.72c-.2-.2-.436-.356-.708-.468a2.159 2.159 0 0 0-.852-.168 2.282 2.282 0 0 0-1.584.636c-.2.2-.364.44-.492.72-.12.28-.192.584-.216.912h4.596Z" fill-opacity=".45"/></g></svg>