<svg width="873" height="392" viewBox="0 0 873 392" fill="#f88500" xmlns="http://www.w3.org/2000/svg">
<path d="M341.52 391.005C318.067 385.052 301.512 363.958 301.207 339.636C301.048 327.007 303.394 318.683 309.824 309.057C328.502 281.097 368.195 277.175 391.818 300.956C402.988 312.202 406.147 320.545 406.166 338.857C406.181 352.905 405.759 355.244 401.873 362.668C392.888 379.831 376.372 390.744 357.686 391.865C352.001 392.205 344.726 391.821 341.52 391.005ZM363.426 352.674C371.538 346.957 372.879 333.742 366.006 327.246C354.034 315.93 335.931 324.407 337.883 340.415C339.366 352.574 353.763 359.484 363.426 352.674ZM705.596 390.551C689.564 385.983 675.498 372.731 669.456 356.505C665.63 346.23 666.586 325.935 671.356 316.152C676.993 304.59 684.868 296.603 696.135 291.02C705.39 286.435 707.884 285.892 719.704 285.892C731.518 285.892 734.024 286.437 743.27 291.012C762.289 300.424 772.683 317.361 772.631 338.857C772.578 361.278 761.033 379.003 740.544 388.122C731.678 392.068 714.991 393.228 705.596 390.551ZM730.918 350.669C735.259 346.766 735.974 345.095 735.974 338.857C735.974 332.619 735.259 330.949 730.918 327.046C727.131 323.642 724.318 322.5 719.717 322.5C715.116 322.5 712.303 323.642 708.516 327.046C704.175 330.949 703.46 332.619 703.46 338.857C703.46 345.095 704.175 346.766 708.516 350.669C712.303 354.073 715.116 355.214 719.717 355.214C724.318 355.214 727.131 354.073 730.918 350.669ZM194.842 271.093H189.349C176.988 271.093 171.59 255.302 180.788 246.048L185.314 241.495H234.281C288.065 241.495 290.222 241.163 293.861 232.324C296.217 226.602 294.813 219.412 290.588 215.563C287.623 212.861 282.699 212.625 214.069 211.896L140.718 211.117L136.462 206.833C130.522 200.854 130.522 191.781 136.463 185.803L140.72 181.519L390.198 179.961L393.934 175.59C398.874 169.811 398.874 162.071 393.933 156.291L390.197 151.921L7.58231 150.363L4.32616 147.086C2.53531 145.284 0.701315 141.044 0.250661 137.663C-0.428609 132.568 0.142338 130.667 3.58906 126.545L7.74681 121.574L464.177 120.764L468.434 116.48C474.376 110.502 474.377 101.429 468.435 95.4501L464.177 91.1661L282.673 90.3872C182.846 89.9588 100.227 88.9969 99.076 88.2497C94.9746 85.588 92.3628 76.522 94.1381 71.1096C97.6861 60.293 91.4453 60.7889 224.039 60.7889C306.516 60.7889 344.472 60.2671 347.021 59.0983C356.404 54.7968 358.202 40.7227 350.18 34.3736C346.254 31.2666 344.349 31.1905 270.45 31.1905C189.822 31.1905 186.444 30.9001 182.58 23.6358C179.673 18.1706 180.596 9.91903 184.644 5.18411L188.38 0.813277L592.756 0V277.324H611.336V68.5779H745.813L748.953 72.5933C751.716 76.1281 777.226 103.08 835.095 163.604C844.516 173.457 856.889 186.426 862.592 192.424L872.961 203.328L873 325.616L790.166 325.613L787.514 316.533C783.796 303.802 773.941 289.689 762.978 281.398C734.003 259.483 695.079 262.221 669.482 287.976C660.554 296.959 652.438 310.931 650.684 320.337L649.699 325.616H424.335L423.351 320.336C420.263 303.775 402.219 281.927 384.772 273.622C345.265 254.817 297.994 276.212 285.383 318.606L283.529 324.837L194.842 325.664V271.093ZM787.598 149.973C759.25 120.2 735.341 95.3245 734.467 94.695C733.593 94.0655 712.498 93.5398 687.59 93.5267L642.302 93.5028V204.107H839.141L787.598 149.973Z" fill="#F88500"/>
</svg>
