<svg xmlns="http://www.w3.org/2000/svg" width="11.164" height="15" viewBox="0 0 11.164 15"><g fill="none"><path d="M5.582,0a5.582,5.582,0,0,1,5.582,5.582c0,3.083-5.611,9.56-5.582,9.416S0,8.665,0,5.582A5.582,5.582,0,0,1,5.582,0Z" stroke="none"/><path d="M 5.581848621368408 1.999999046325684 C 3.606808662414551 1.999999046325684 1.999999046325684 3.606808662414551 1.999999046325684 5.581849098205566 C 1.999999046325684 5.749348640441895 2.080278396606445 6.707088470458984 3.66520881652832 9.119298934936523 C 4.303638935089111 10.09096908569336 5.020891189575195 11.04687881469727 5.631970882415771 11.82853126525879 C 6.052192687988281 11.28572368621826 6.522184371948242 10.6519660949707 6.982988834381104 9.979588508605957 C 9.102508544921875 6.88688850402832 9.163698196411133 5.70628833770752 9.163698196411133 5.581849098205566 C 9.163698196411133 3.606808662414551 7.556888580322266 1.999999046325684 5.581848621368408 1.999999046325684 M 5.581848621368408 -9.5367431640625e-07 C 8.664618492126465 -9.5367431640625e-07 11.16369819641113 2.499078750610352 11.16369819641113 5.581849098205566 C 11.16369819641113 8.630561828613281 5.675777912139893 15.00000476837158 5.582912445068359 15.00000476837158 C 5.581874847412109 15.00000476837158 5.58152437210083 14.99922466278076 5.581848621368408 14.99762916564941 C 5.611198425292969 14.85316848754883 -9.5367431640625e-07 8.664618492126465 -9.5367431640625e-07 5.581849098205566 C -9.5367431640625e-07 2.499078750610352 2.499078750610352 -9.5367431640625e-07 5.581848621368408 -9.5367431640625e-07 Z" stroke="none" fill="#f88500"/></g></svg>