<svg width="873" height="392" fill="#f88500" xmlns="http://www.w3.org/2000/svg"><path d="M341.52 391.005c-23.453-5.953-40.008-27.047-40.313-51.369-.159-12.629 2.187-20.953 8.617-30.579 18.678-27.96 58.371-31.882 81.994-8.101 11.17 11.246 14.329 19.589 14.348 37.901.015 14.048-.407 16.387-4.293 23.811-8.985 17.163-25.501 28.076-44.187 29.197-5.685.34-12.96-.044-16.166-.86Zm21.906-38.331c8.112-5.717 9.453-18.932 2.58-25.428-11.972-11.316-30.075-2.839-28.123 13.169 1.483 12.159 15.88 19.069 25.543 12.259Zm342.17 37.877c-16.032-4.568-30.098-17.82-36.14-34.046-3.826-10.275-2.87-30.57 1.9-40.353 5.637-11.562 13.512-19.549 24.779-25.132 9.255-4.585 11.749-5.128 23.569-5.128 11.814 0 14.32.545 23.566 5.12 19.019 9.412 29.413 26.349 29.361 47.845-.053 22.421-11.598 40.146-32.087 49.265-8.866 3.946-25.553 5.106-34.948 2.429Zm25.322-39.882c4.341-3.903 5.056-5.574 5.056-11.812 0-6.238-.715-7.908-5.056-11.811-3.787-3.404-6.6-4.546-11.201-4.546-4.601 0-7.414 1.142-11.201 4.546-4.341 3.903-5.056 5.573-5.056 11.811 0 6.238.715 7.909 5.056 11.812 3.787 3.404 6.6 4.545 11.201 4.545 4.601 0 7.414-1.141 11.201-4.545Zm-536.076-79.576h-5.493c-12.361 0-17.759-15.791-8.561-25.045l4.526-4.553h48.967c53.784 0 55.941-.332 59.58-9.171 2.356-5.722.952-12.912-3.273-16.761-2.965-2.702-7.889-2.938-76.519-3.667l-73.351-.779-4.256-4.284c-5.94-5.979-5.94-15.052.001-21.03l4.257-4.284 249.478-1.558 3.736-4.371c4.94-5.779 4.94-13.519-.001-19.299l-3.736-4.37-382.615-1.558-3.256-3.277c-1.79-1.802-3.625-6.042-4.075-9.423-.68-5.095-.109-6.996 3.338-11.118l4.158-4.971 456.43-.81 4.257-4.284c5.942-5.978 5.943-15.051.001-21.03l-4.258-4.284-181.504-.779c-99.827-.428-182.446-1.39-183.597-2.137-4.101-2.662-6.713-11.728-4.938-17.14 3.548-10.817-2.693-10.321 129.901-10.321 82.477 0 120.433-.522 122.982-1.69 9.383-4.302 11.181-18.376 3.159-24.725-3.926-3.107-5.831-3.184-79.73-3.184-80.628 0-84.006-.29-87.87-7.554-2.907-5.465-1.984-13.717 2.064-18.452l3.736-4.37L592.756 0v277.324h18.58V68.578h134.477l3.14 4.015c2.763 3.535 28.273 30.487 86.142 91.011 9.421 9.853 21.794 22.822 27.497 28.82l10.369 10.904.039 122.288-82.834-.003-2.652-9.08c-3.718-12.731-13.573-26.844-24.536-35.135-28.975-21.915-67.899-19.177-93.496 6.578-8.928 8.983-17.044 22.955-18.798 32.361l-.985 5.279H424.335l-.984-5.28c-3.088-16.561-21.132-38.409-38.579-46.714-39.507-18.805-86.778 2.59-99.389 44.984l-1.854 6.231-88.687.827v-54.571Zm592.756-121.12c-28.348-29.773-52.257-54.649-53.131-55.278-.874-.63-21.969-1.155-46.877-1.168l-45.288-.024v110.604h196.839l-51.543-54.134Z" fill="#F88500"/></svg>