<svg xmlns="http://www.w3.org/2000/svg" width="480" height="479.5"><path style="fill:#f88500" d="m554.641 488.311-2.454-2.454V231.675l2.454-2.455c1.612-1.611 3.585-2.454 5.746-2.454 3.037 0 13.024 9.733 129.545 126.254 116.522 116.521 126.255 126.508 126.255 129.545 0 2.161-.843 4.134-2.455 5.746l-2.454 2.455H557.096Zm233.546-13.797c0-.139-49.5-49.75-110-110.248l-110-109.997v220.497h110c60.5 0 110-.114 110-.252zM602.64 440.31l-2.454-2.454v-86.182l2.454-2.455c1.61-1.609 3.585-2.454 5.737-2.454 2.991 0 7.03 3.747 45.545 42.263 38.517 38.516 42.264 42.554 42.264 45.545 0 2.152-.846 4.128-2.455 5.737l-2.454 2.455h-86.182zm65.546-13.803c0-.141-11.7-11.95-26-26.242l-26-25.986v52.486h26c14.3 0 26-.116 26-.258zm132 8.29v-8.032l65.75-.006c44.867-.004 67.02-.357 69.75-1.11 5.377-1.484 13.9-10.007 15.384-15.385.608-2.2 1.107-6.587 1.11-9.75l.006-5.75h-187.09l-2.454-2.454-2.455-2.454v-70.182l2.455-2.455 2.454-2.454h187.091V150.289l-16 15.977-16 15.976v111.615l-2.454 2.454-2.455 2.455H733.096l-2.455-2.455c-2.424-2.425-2.454-2.674-2.454-20.5v-18.045h-3.388c-5.084 0-20.19-4.637-28.112-8.629-23.059-11.619-39.428-32.357-46.083-58.383-3-11.736-2.546-31.635.992-43.41 4.813-16.015 11.647-27.707 22.559-38.597 11.61-11.586 25.827-19.472 42.669-23.667 10.202-2.542 30.37-2.271 40.863.547 24.698 6.635 45.54 23.34 56.623 45.385l3.899 7.754h58.488l37.745-37.755 37.745-37.755-.006-7.995c-.003-4.398-.502-9.795-1.11-11.995-1.484-5.378-10.007-13.9-15.384-15.385-5.654-1.56-281.347-1.56-287 0-5.378 1.484-13.9 10.007-15.385 15.385-.773 2.8-1.106 35.701-1.11 109.75l-.006 105.75h-16.043l.272-108.803.271-108.802c5.837-19.196 15.985-26.521 30-29.895h291l6.741 3.193c11.707 5.546 21.006 17.275 22.495 28.374.29 2.163.756 3.933 1.035 3.933.279 0 4.085-3.418 8.457-7.596 10.25-9.792 14.753-11.902 25.272-11.842 9.337.054 15.52 2.654 21.644 9.101 6.186 6.513 8.245 11.685 8.296 20.837.072 13.17-.337 13.742-33.982 47.508l-29.458 29.565v180.427h59.091l2.455 2.454 2.454 2.455v70.182l-2.454 2.454-2.455 2.455h-58.813l-.517 9.06c-.445 7.802-1.018 10.075-4.123 16.359-4.363 8.827-10.257 14.557-19.458 18.916l-6.68 3.165-68.75.282-68.75.283zm216-80.032v-24h-16v16h-16v-16h-16v16h-16v-16h-16v16h-16v-16h-16v16h-16v-16h-16v16h-16v-16h-16v16h-16v-16h-16v16h-16v-16h-16v48h240zm-112-114.232v-42.23l-9.89 9.851-9.889 9.852-22.225 4.46c-12.223 2.452-23.292 4.19-24.598 3.863-1.305-.328-3.14-1.766-4.076-3.195-1.636-2.497-1.53-3.487 2.695-25.234l4.397-22.635 9.983-10.25 9.982-10.25H823.15l.634 10.75c2.515 42.667-24.914 79.72-67.16 90.724-3.222.839-7.339 1.526-9.148 1.526h-3.29v25h160zm-173.14-99.857c2.22-1.797 4.37-1.911 35.857-1.911 29.559 0 33.428-.18 32.913-1.52-1.54-4.015-9.073-13.665-14.98-19.19-7.713-7.216-16.817-12.554-27.484-16.116-6.715-2.242-9.342-2.56-21.166-2.557-11.99.002-14.396.302-21.5 2.686-19.867 6.664-34.015 18.878-43.087 37.197-10.115 20.423-10.013 41.98.3 63.468 3.9 8.126 5.837 10.753 13.665 18.532 11.615 11.541 23.32 17.845 37.697 20.3l4.425.756.5-49.867.5-49.867zm29.79 97.642c9.927-3.604 17.192-8.396 25.853-17.053 9.131-9.129 14.386-17.5 18.203-29 2.303-6.94 2.664-9.722 2.724-21 .038-7.15-.254-13.788-.649-14.75-.663-1.614-3.137-1.75-31.75-1.75h-31.031v87.727l5.158-.938c2.838-.516 8.009-1.972 11.492-3.236zm96.734-31.088c2.552-.383 4.84-1.019 5.083-1.413.244-.394-1.734-2.86-4.394-5.48-2.66-2.62-5.056-4.384-5.324-3.918-.268.465-.795 2.646-1.171 4.846-.377 2.2-.938 4.855-1.247 5.9-.412 1.396-.166 1.75.925 1.331.819-.314 3.576-.884 6.128-1.266zm81.114-66.464 57.992-57.999-10.248-10.247-10.247-10.248-58.238 58.237-58.237 58.238 9.97 10.009c5.485 5.505 10.207 10.009 10.494 10.009.287 0 26.619-26.1 58.514-57.999zm73.384-73.52c5.661-6.448 5.577-14.489-.213-20.279-6.077-6.077-15.283-5.553-21.621 1.232l-2.452 2.624 9.933 9.971c5.463 5.484 10.232 9.97 10.598 9.97.366 0 2.056-1.583 3.755-3.518zm-363.881-16.48v-8h16v16h-16zm32 0v-8h16v16h-16zm32 0v-8h16v16h-16z" transform="translate(-552.187 -11.266)"/></svg>