<svg width="931.62" height="566.49" style="fill:#f88500" xmlns="http://www.w3.org/2000/svg"><path d="M694.1 564.76c-28.597-5.288-60.886-18.445-87.857-35.798l-8.924-5.741 25.364-18.958c45.962-34.356 77.346-61.602 114.09-99.047 36.322-37.02 64.684-71.681 90.954-111.16 14.474-21.75 36.096-58 34.595-58-.354 0-6.072 7.65-12.706 17-70.05 98.736-170.42 189.33-260.43 235.07-10.038 5.1-18.57 8.76-18.958 8.13-4.171-6.749-14.485-43.494-18.276-65.117-3.877-22.113-4.252-57.775-.79-75.175 6.65-33.422 20.206-57.225 45.355-79.641 30.357-27.057 69.386-46.42 133.59-66.273 75.356-23.302 99.204-33.016 128-52.135 20.416-13.555 41.553-34.874 54.276-54.742 3.881-6.062 7.43-11.042 7.884-11.068 1.423-.08 6.439 26.516 8.414 44.62 2.929 26.834 3.657 53.67 2.196 80.836-8.512 158.21-64.666 288.94-142.46 331.67-13.877 7.62-28.98 13.135-42.37 15.47-13.89 2.422-39.002 2.45-51.935.059zm-331.65-2.054c-57.002-5.11-104.48-24.638-144.09-59.276-42.739-37.365-77.989-99.74-91.467-161.85-5.988-27.595-7.991-48.474-10.098-105.26-1.092-29.433-2.841-58.195-4.04-66.421-9.432-64.78-37.962-106.09-103.05-149.2L-.02 14.256l7.726-2.423c11.83-3.709 36.838-8.738 52.25-10.509 23.39-2.686 79.799-.954 108.14 3.32 103.51 15.61 210.39 58.924 293.53 118.96 47.046 33.97 88.543 76.463 112.3 114.99l5.931 9.62-16.304 16.256c-17.81 17.758-25.118 27.565-32.862 44.098-16.934 36.156-17.126 82.976-.548 134.1 2.486 7.667 4.332 14.128 4.103 14.357s-2.406-3.343-4.837-7.94c-48.837-92.36-109.18-166.79-182.64-225.28-18.737-14.917-60.209-43.749-62.929-43.749-.364 0 8.696 9.464 20.133 21.03 55.331 55.952 98.746 110.76 133.86 168.97 12.688 21.034 33.238 62.434 41.367 83.332 11.493 29.548 20.726 65.367 21.29 82.588l.28 8.589-12 3.759c-36.64 11.479-90.389 17.596-126.31 14.376zm172.93-101.4c-.483-.782-.593-1.708-.243-2.058s.99.29 1.425 1.422c.901 2.35.133 2.763-1.182.636z"/></svg>