<svg xmlns="http://www.w3.org/2000/svg" width="11.164" height="15"><g fill="none"><path d="M5.582 0a5.582 5.582 0 0 1 5.582 5.582c0 3.083-5.611 9.56-5.582 9.416S0 8.665 0 5.582A5.582 5.582 0 0 1 5.582 0Z"/><path d="M5.582 2A3.586 3.586 0 0 0 2 5.582c0 .167.08 1.125 1.665 3.537a41.701 41.701 0 0 0 1.967 2.71c.42-.543.89-1.177 1.351-1.85 2.12-3.092 2.18-4.273 2.18-4.397A3.586 3.586 0 0 0 5.583 2m0-2c3.083 0 5.582 2.5 5.582 5.582C11.164 8.63 5.676 15 5.583 15l-.001-.002C5.612 14.853 0 8.665 0 5.582S2.5 0 5.582 0Z" fill="#f88500"/></g></svg>