<svg xmlns="http://www.w3.org/2000/svg" width="298.063" height="297.365"><path style="fill:#f88500" d="M697.74 396.26c-11.648-7.114-137.568-90.007-139.69-91.957-2.679-2.461-3.037-8.15-.722-11.456 1.834-2.619 7.446-3.882 10.347-2.33 1.147.614 32.26 20.905 69.14 45.092 36.88 24.186 67.473 43.975 67.985 43.975.511 0 31.105-19.789 67.985-43.975 36.88-24.187 67.992-44.478 69.14-45.092 2.9-1.552 8.512-.289 10.346 2.33 2.315 3.305 1.957 8.994-.721 11.46-2.12 1.95-128.002 84.815-139.692 91.954-2.992 1.828-6.169 3.323-7.058 3.323-.89 0-4.067-1.495-7.06-3.323zm1.835-47.235c-5.442-2.952-6.454-9.49-2.14-13.804 5.737-5.737 17.365-2.01 17.365 5.565 0 3.987-1.505 6.49-4.98 8.288-3.633 1.878-6.722 1.864-10.245-.049zm-25.387-16.85c-7.092-3.14-9.474-9.67-5.41-14.835 2.603-3.311 6.072-3.86 10.855-1.719 7.081 3.17 9.252 9.517 4.917 14.37-2.853 3.192-6.395 3.939-10.362 2.183zm53.969.418c-4.934-1.991-6.81-8.489-3.725-12.894 2.097-2.994 8.715-5.962 11.924-5.349 3.358.642 6.444 4.799 6.444 8.68 0 3.736-2.86 7.18-7.61 9.164-3.767 1.574-4.076 1.592-7.033.399zM645.3 313.417c-4.537-2.509-6.5-5.163-6.5-8.785 0-9.872 11.163-12.012 17.911-3.433 2.781 3.536 2.633 6.585-.5 10.309-2.781 3.304-7.041 4.05-10.911 1.91zm108.088-1.91c-3.133-3.723-3.281-6.772-.5-10.308 4.66-5.924 13.038-7.127 16.383-2.352 2.317 3.307 1.958 8.998-.721 11.438-5.848 5.326-11.336 5.769-15.162 1.223zm-52.969-9.076c-7.92-4.6-142.394-93.333-143.37-94.602-2.08-2.709-1.542-8.626 1-10.977 1.238-1.145 33.976-22.905 72.75-48.357 59.09-38.785 71.067-46.275 74-46.276 2.935 0 14.896 7.479 74 46.272 38.776 25.45 71.513 47.211 72.75 48.357 2.543 2.356 3.082 8.272 1 10.981-1.068 1.392-138.114 91.74-143.649 94.701-2.508 1.343-6.07 1.301-8.48-.099zm-83.12-7.342c-4.474-2.334-6.5-5.276-6.5-9.441 0-7.268 7.494-10.394 14.515-6.055 10.463 6.466 2.859 21.168-8.014 15.496zm166.75.464c-1.238-.498-2.994-2.462-3.901-4.365-1.396-2.927-1.455-3.932-.382-6.523 2.721-6.57 12.59-9.31 16.923-4.699 4.399 4.683 2.384 11.837-4.216 14.969-3.876 1.84-5.153 1.933-8.424.618zm-196.942-20.048c-1.851-1.185-3.672-3.497-4.333-5.499-.965-2.923-.852-3.946.734-6.662 2.549-4.365 6.842-5.542 11.738-3.218 6.882 3.266 8.997 10.228 4.546 14.966-2.935 3.124-8.186 3.295-12.685.413zm222.7-.413c-4.451-4.738-2.336-11.7 4.546-14.966 4.896-2.324 9.19-1.147 11.738 3.218 1.59 2.722 1.7 3.735.728 6.682-2.307 6.99-12.385 9.991-17.012 5.066zm-249.232-17.017c-3.414-1.914-4.775-4.41-4.775-8.75 0-7.324 8.751-10.345 14.923-5.152 5.784 4.867 3.4 13.949-3.923 14.951-2.116.29-4.578-.125-6.225-1.05zm279.54.502c-2.834-1.142-4.315-4.003-4.315-8.338 0-2.655.727-4.09 3.076-6.066 6.24-5.25 14.924-2.171 14.924 5.291 0 4.303-1.43 6.774-4.98 8.61-3.253 1.682-5.462 1.81-8.705.503z" transform="translate(-555.768 -102.22)"/></svg>