<svg width="834.99" height="535.28" style="fill:#f88500" xmlns="http://www.w3.org/2000/svg"><path d="M178.579 530.03c.36-2.889 1.276-7.71 2.035-10.712.758-3.003 1.379-6.914 1.379-8.691 0-1.777.45-3.509 1-3.849s1-2.766 1-5.392c0-2.626.337-5.108.75-5.515.678-.669 2.411-9.554 3.92-20.093.315-2.2.89-4.225 1.278-4.5.388-.275 1.245-4.1 1.904-8.5.659-4.4 1.44-9.575 1.735-11.5s.919-4.4 1.385-5.5c.802-1.889 2.677-11.797 3.691-19.5.254-1.925.847-4.4 1.32-5.5s1.131-3.575 1.465-5.5c2.11-12.148 3.144-16.925 3.803-17.585.412-.411.745-1.686.74-2.832-.012-2.992 3.368-16.02 4.259-16.417.412-.183.75-1.42.75-2.75s.401-2.416.892-2.416c.49 0 1.174-1.125 1.519-2.5s1.068-2.5 1.608-2.5.98-.47.98-1.044c0-.949 5.688-7.67 8.762-10.355.693-.606 3.003-2.789 5.132-4.851 2.13-2.063 4.17-3.75 4.533-3.75s1.875-1.125 3.357-2.5c1.483-1.375 3.226-2.5 3.873-2.5s1.327-.384 1.51-.854c.38-.972 14.303-9.63 20.334-12.646 2.2-1.1 4.225-2.225 4.5-2.5.559-.559 7.088-3.731 20.5-9.96 4.95-2.3 9.781-4.599 10.736-5.11.955-.512 2.417-.93 3.25-.93s1.513-.45 1.513-1 .575-1 1.278-1c1.38 0 9.494-4.08 16.722-8.408 2.475-1.482 5.737-3.22 7.25-3.863 1.512-.642 2.75-1.519 2.75-1.948s.684-.78 1.52-.78 3.302-1.126 5.48-2.5 4.623-2.5 5.433-2.5c1.877 0 3.554-5.94 3.561-12.612l.006-5.11 18-2.667v-5.757c0-7.875-1.804-15.855-3.583-15.855-.78 0-1.417-.45-1.417-1s-.454-1-1.009-1c-1.567 0-6.991-5.172-6.991-6.665 0-.734-.34-1.335-.756-1.335-1.286 0-6.244-12.36-6.244-15.563 0-1.275-.45-2.597-1-2.937s-1-3.255-1-6.477c0-7.043-.648-9.023-2.954-9.023-2.867 0-7.872-2.943-9.88-5.81-2.309-3.3-3.059-6.332-4.195-16.965-.486-4.551-1.215-8.81-1.619-9.463-.752-1.218-2.055-7.278-3.03-14.098-.319-2.227-.082-4.304.564-4.95.613-.613 1.114-1.832 1.114-2.71 0-.879 1.8-3.355 4-5.504 4.502-4.396 4.533-4.501 2.594-8.848-.773-1.734-2.17-5.402-3.106-8.152-.935-2.75-2.082-5.9-2.548-7-2.692-6.348-3.08-10.824-2.56-29.5.588-21.09 1.372-30.926 2.592-32.5.426-.55 1.083-3.127 1.46-5.726.375-2.6 1.107-4.989 1.625-5.31s.943-1.68.943-3.023c0-1.342.4-2.44.891-2.44.49 0 1.174-1.123 1.518-2.496.344-1.372 2.756-4.659 5.358-7.303 4.679-4.755 10.323-7.202 16.61-7.202 2.078 0 2.35-.466 2.35-4.04 0-2.857.683-4.768 2.334-6.525 2.892-3.078 10.547-7.435 13.064-7.435 1.03 0 1.874-.344 1.874-.766 0-.672 8.315-2.803 19-4.868 5.378-1.04 32.76-.749 39.5.42 7.734 1.34 15.464 3.116 18 4.134 1.1.442 3.703 1.54 5.784 2.442 2.081.901 4.444 1.638 5.25 1.638s1.466.398 1.466.884.787 1.148 1.75 1.47c3.215 1.08 12.337 7.736 17.4 12.698 4.703 4.606 10.642 15.274 12.499 22.449.285 1.1.888 2.9 1.34 4 2.151 5.224 3.51 24.59 3.51 50 0 14.85-.224 29.229-.5 31.953-.482 4.782-.396 4.989 2.5 5.984 4.327 1.486 7.347 5.357 8.1 10.38.723 4.818-.158 15.947-1.538 19.45-.484 1.228-1.654 4.933-2.6 8.233s-2.11 6.427-2.59 6.95-.871 1.947-.871 3.166-.338 2.367-.75 2.55-1.65 2.134-2.75 4.334c-2.127 4.254-5.193 7.412-7.25 7.466-.688.018-1.25.532-1.25 1.142 0 .666-.944.872-2.363.515-2.232-.56-2.396-.275-2.964 5.142-1.166 11.104-2.832 20.745-3.748 21.684-.509.523-.925 1.985-.925 3.25s-.45 2.3-1 2.3-1.002.563-1.005 1.25c-.007 1.707-5.925 7.948-9.082 9.578-2.404 1.24-2.522 1.634-1.803 6 .424 2.57.797 7.412.83 10.762l.06 6.09 7.25 1.264c3.987.695 7.812 1.428 8.5 1.629.846.247 1.25 2.623 1.25 7.349 0 8.58 1.186 11.358 5.867 13.734 1.998 1.014 3.858 2.08 4.133 2.367 1.397 1.462 6.118 3.977 7.464 3.977.845 0 1.536.45 1.536 1s.437 1 .972 1c.835 0 9.344 3.59 14.027 5.917 1.627.808 20.008 6.532 26.5 8.251 2.2.583 4.9 1.411 6 1.84 1.1.43 4.25 1.546 7 2.482 7.12 2.422 26.107 11.076 27.5 12.533.275.287 1.768 1.33 3.316 2.316 4.968 3.163 13.521 11.028 18.184 16.72 2.559 3.122 5.512 11.508 5.505 15.632-.003 1.755.398 3.44.89 3.744.492.304 1.121 2.243 1.398 4.309.64 4.772 2.472 12.163 3.657 14.756.503 1.1 1.137 3.35 1.41 5 1 6.052 2.746 13.045 3.68 14.736.529.955.96 2.846.96 4.203s.418 3.5.928 4.763c.51 1.264 1.673 5.897 2.582 10.297s2.067 8.782 2.572 9.737c.505.955.918 2.465.918 3.357 0 2.139 2.986 15.358 4.045 17.907.457 1.1 1.032 3.575 1.277 5.5.65 5.112 2.806 15.187 3.743 17.5.446 1.1 1.019 3.575 1.272 5.5 1.014 7.702 2.89 17.61 3.69 19.5.976 2.3 2.071 12.262 2.31 21l.163 6-469.57.504.656-5.252zm479.41-59.931c0-1.748-.413-4.56-.918-6.25-.942-3.15-2.932-12.725-3.756-18.071-.254-1.65-.824-3.9-1.266-5-.442-1.1-1.586-5.6-2.542-10-.956-4.4-2.08-8.9-2.499-10-.696-1.829-4.043-14.988-5.978-23.5-1.893-8.329-3.337-13.618-4.16-15.236-.484-.955-.881-2.777-.881-4.05s-.437-2.75-.972-3.285-1.275-4.24-1.646-8.232c-.371-3.993-1.06-7.497-1.529-7.787s-.853-1.58-.853-2.866c0-5.019-7.312-16.834-15.5-25.046-4.4-4.413-9.05-8.833-10.334-9.823-4.469-3.445-15.211-9.675-16.683-9.675-.815 0-1.482-.344-1.482-.764 0-.803-7.3-4.236-9.007-4.236-.547 0-.993-.419-.993-.93 0-.512-1.013-1.075-2.25-1.25-1.446-.206-2.365-1.124-2.57-2.57-.176-1.237.082-2.25.573-2.25.49 0 1.933-2.084 3.206-4.632 2.259-4.523 10.063-13.368 11.794-13.368.478 0 1.741-.804 2.808-1.787s3.4-2.388 5.188-3.122l3.25-1.334v-9.638c0-10.795-.344-11.367-7.627-12.681-2.13-.384-4.323-1.008-4.873-1.386-.55-.377-3.7-1.502-7-2.499s-7.033-2.204-8.297-2.682-3.176-.871-4.25-.871-1.953-.392-1.953-.872-1.704-1.145-3.786-1.478-6.02-1.738-8.75-3.123c-2.73-1.385-5.526-2.52-6.214-2.523-.687 0-1.25-.454-1.25-1.004s.401-1 .892-1c.49 0 1.174-1.125 1.519-2.5s1.069-2.5 1.608-2.5.981-1.125.981-2.5.45-2.5 1-2.5 1-.89 1-1.98c0-1.089.731-3.807 1.625-6.041 1.896-4.738 1.295-6.107-1.303-2.97-6.122 7.388-17.322 17.288-17.322 15.31 0-.506.413-1.347.918-1.87 1.497-1.547 9.082-16.686 9.082-18.125 0-.728.45-1.324 1-1.324s1-.495 1-1.099c0-1.068 2.245-6.649 4.071-10.117 1.139-2.163 2.969-9.203 3.583-13.784.258-1.925.845-4.4 1.304-5.5.9-2.156 2.9-16.091 4.162-29 .43-4.4 1.206-10.7 1.723-14 .518-3.3 1.48-10.275 2.14-15.5.66-5.225 1.576-10.4 2.035-11.5s1.095-4.025 1.412-6.5c1.015-7.92 3.049-17.812 3.821-18.585.412-.412.749-1.805.749-3.096 0-1.29.412-3.128.917-4.083.504-.955 2.855-5.674 5.223-10.486s4.656-8.75 5.083-8.75c.427 0 .777-.512.777-1.139 0-1.547 10.186-11.81 11.75-11.838.687-.013 1.25-.374 1.25-.803s1.237-1.312 2.75-1.961 5.175-2.548 8.138-4.22c2.964-1.67 6.001-3.038 6.75-3.038.75 0 1.362-.4 1.362-.887 0-.488 1.237-1.13 2.75-1.428 4.757-.936 11.659-2.91 14.06-4.02 3.214-1.486 28.913-1.342 30.425.17.64.64 2.19 1.165 3.444 1.165 2.482 0 7.859 1.873 16.098 5.607 2.903 1.316 5.715 2.393 6.25 2.393.535 0 .973.397.973.883s.787 1.132 1.75 1.436c5.377 1.697 20.25 13.896 20.25 16.609 0 .51.574 1.523 1.275 2.25 2.498 2.589 10.65 20.507 11.318 24.876.374 2.445 1.02 4.895 1.436 5.445.416.55.997 3.025 1.292 5.5.295 2.475 1.281 8.775 2.191 14 2.298 13.19 5.297 33.543 7.516 51 1.995 15.701 4.374 27.923 6.078 31.236.492.955.896 2.53.9 3.5.003.97.678 3.053 1.5 4.628.821 1.576 1.493 3.488 1.493 4.25s.45 1.386 1 1.386 1 .556 1 1.236 1.193 3.717 2.65 6.75 3.82 7.989 5.25 11.014 3.037 5.813 3.572 6.195c.534.383.689.978.345 1.322-.966.966-10.961-8.057-17.22-15.544l-2.904-3.474.714 4c1.308 7.327 4.608 16.034 6.633 17.5.38.275 1.007 1.515 1.394 2.755.527 1.687.246 2.407-1.115 2.858-1 .332-3.764 1.473-6.142 2.535-2.378 1.063-5.65 2.197-7.271 2.521-1.621.324-3.19.981-3.486 1.46-.296.48-1.642.871-2.992.871s-3.236.413-4.191.918c-1.836.97-14.907 5.154-21.87 7-6.095 1.617-6.46 2.455-5.706 13.082.642 9.049.735 9.323 3.5 10.367 1.561.59 2.84 1.423 2.84 1.852 0 .43.48.781 1.066.781 1.19 0 7.338 4.422 10.426 7.5 1.103 1.1 2.907 3.793 4.007 5.985s2.562 4.586 3.25 5.321 1.25 1.688 1.25 2.117c0 1.848 6.124 6.957 9.654 8.054 3.906 1.214 7.7 2.793 14.783 6.155 2.166 1.027 4.528 1.868 5.25 1.868s1.312.442 1.312.981 1.125 1.263 2.5 1.608 2.5.965 2.5 1.378c0 1.107 9.873 6.033 12.092 6.033 1.05 0 1.908.348 1.908.773 0 .864 7.503 3.07 13.256 3.898 2.066.297 4.005.943 4.309 1.435.304.492 1.671.894 3.038.894s5.503.737 9.191 1.638c7.252 1.77 16.553 7.73 17.698 11.338.353 1.113 1.062 2.024 1.575 2.024.513 0 .933.675.933 1.5s.337 1.503.75 1.506c.98.01 4.25 5.77 4.25 7.492 0 .734.525 1.51 1.167 1.725 1.229.41 2.322 16.852 3.443 51.778.326 10.175.998 18.928 1.492 19.45s.898 10.085.898 21.25v20.3h-177zm-656-13.262c0-2.442-.45-4.72-1-5.059-1.25-.772-1.347-24.73-.107-26.05.491-.523 1.161-6.125 1.49-12.45.646-12.47 2.665-27.398 3.867-28.59.412-.409.75-1.822.75-3.14 0-2.573 2.55-11.658 4.072-14.507.51-.955.928-2.381.928-3.17s.656-2.706 1.457-4.263c.8-1.557 2.036-4.293 2.744-6.08.708-1.788 1.548-3.25 1.866-3.25s1.614-2.074 2.88-4.607c2.891-5.791 15.256-18.4 20.553-20.96 2.2-1.064 4.15-2.271 4.333-2.684s.748-.75 1.255-.75c.507 0 3.254-1.125 6.104-2.5s5.773-2.5 6.495-2.5 1.313-.444 1.313-.988 1.81-1.277 4.022-1.631c2.212-.354 4.264-1.034 4.56-1.512.294-.478 1.416-.869 2.49-.869 1.076 0 2.737-.394 3.692-.875.955-.482 4.436-1.689 7.736-2.683 3.3-.994 6.45-2.08 7-2.415s3.588-1.45 6.75-2.48 5.75-2.248 5.75-2.709 1.013-.852 2.25-.87c1.238-.016 3.124-.692 4.191-1.5s2.755-1.468 3.75-1.468 1.809-.45 1.809-1 .681-1 1.514-1 2.295-.428 3.25-.951c.955-.523 3.536-1.737 5.736-2.698s4.225-2.007 4.5-2.326c.275-.319 2.525-1.455 5-2.525 2.475-1.07 4.725-2.182 5-2.472.651-.687 10.984-5.683 13.25-6.406.963-.307 1.75-1.473 1.75-2.59s.405-2.032.9-2.032c.494 0 1.14-1.912 1.435-4.25.295-2.337 1.268-7.85 2.163-12.25 2.956-14.536 2.953-14.1.104-17.174-1.431-1.543-2.602-3.372-2.602-4.066 0-.693-.401-1.26-.892-1.26-.49 0-1.174-1.125-1.519-2.5s-1.068-2.5-1.608-2.5-.98-.675-.98-1.5-.45-1.5-1-1.5-1-.718-1-1.596c0-.877-.637-2.79-1.414-4.25-2.691-5.056-5.67-12.315-6.256-15.249-.324-1.62-.981-3.189-1.46-3.485s-.87-1.68-.87-3.075-.708-4.97-1.572-7.941c-1.425-4.902-1.835-5.404-4.411-5.404-3.117 0-7.681-4.493-8.46-8.327-1.864-9.188-2.654-16.924-2.841-27.827-.233-13.604-.184-13.751 5.893-17.42 1.576-.952 1.63-1.433.474-4.224-1.837-4.433-2.13-48.55-.334-50.35.688-.689 1.25-2.021 1.25-2.96 0-6.078 13.692-22.87 22.75-27.9 2.338-1.298 4.25-2.679 4.25-3.068s1.125-.99 2.5-1.335 2.5-1.069 2.5-1.608c0-.54.675-.981 1.5-.981s1.5-.42 1.5-.933c0-.513.82-1.193 1.824-1.511 1.003-.319 2.704-1.362 3.78-2.318 1.076-.956 3.517-2.616 5.426-3.688s4.37-2.797 5.47-3.832c1.1-1.035 2.788-2.31 3.75-2.835 1.55-.845 1.75-.434 1.75 3.581 0 2.495.23 4.536.512 4.536.281 0 5.271-4.76 11.089-10.578 5.817-5.818 10.857-10.298 11.198-9.957s.733 3.522.871 7.07.828 7.465 1.534 8.706l1.282 2.258.323-2.75c.372-3.16 2.21-3.51 6.555-1.244 1.576.822 3.488 1.494 4.25 1.494s1.386.351 1.386.78 2.25 1.653 5 2.72 5 2.19 5 2.496 2.02 1.444 4.49 2.53c2.47 1.086 4.495 2.312 4.5 2.724.005.413.471.75 1.034.75 1.27 0 14.351 8.142 14.81 9.217.183.43.89.783 1.573.783 2.202 0 13.337 11.661 15.277 16 .369.825.932 1.725 1.252 2 1.222 1.052 4.074 10.646 4.07 13.691-.004 1.755.504 3.506 1.126 3.89 1.11.687.81 16.487-.733 38.42l-.597 8.5 3.6 1.907c1.979 1.049 3.598 2.511 3.598 3.25 0 .738.4 1.342.887 1.342 1.606 0 2.072 8.311 1.15 20.5-.499 6.6-1.21 13.45-1.582 15.223-.805 3.852-4.938 8.277-7.73 8.277-2.467 0-4.65 2.715-4.693 5.836-.044 3.209-3.356 15.587-4.28 15.998-.414.183-.752 1.335-.752 2.559 0 1.224-.66 3.099-1.468 4.166-.807 1.068-1.482 2.467-1.5 3.109-.081 2.982-10.37 18.649-17.775 27.068-1.588 1.805-1.875 3.248-1.494 7.5.26 2.895.869 5.692 1.354 6.215.486.522.883 2.515.883 4.427 0 1.913.742 6.667 1.649 10.564l1.648 7.086 14.101 6.957c7.756 3.826 15.603 7.824 17.437 8.886l3.336 1.929-3.836 1.416c-2.11.78-4.623 1.664-5.586 1.967s-1.75.949-1.75 1.435c0 .486-1.125.883-2.5.883s-2.5.45-2.5 1-.562 1.01-1.25 1.022c-.687.012-3.95 1.353-7.25 2.978-3.3 1.625-6.562 2.965-7.25 2.978-.687.012-1.25.362-1.25.778 0 .416-1.462 1.377-3.25 2.136s-6.051 3.12-9.475 5.244c-3.424 2.125-6.517 3.864-6.873 3.864-.708 0-11.573 7.66-15.096 10.642a249.312 249.312 0 0 1-5 4.084c-5.125 4.066-8.783 7.716-13.304 13.274-2.461 3.025-4.706 5.725-4.988 6s-1.005 1.4-1.604 2.5c-.6 1.1-2.268 4.12-3.708 6.71-3.267 5.878-7.702 18.575-7.702 22.05 0 1.436-.441 3.77-.98 5.188-.54 1.418-1.48 5.385-2.091 8.815-1.212 6.805-2.007 10.605-4.446 21.237-.884 3.85-2 8.8-2.483 11s-1.603 7.15-2.49 11c-.888 3.85-1.977 9.025-2.42 11.5-1.595 8.916 8.266 8-86.197 8H1.988z"/></svg>